<?xml version="1.0" encoding="UTF-8" standalone="no"?>
<!-- Created with Inkscape (http://www.inkscape.org/) -->

<svg
   xmlns:dc="http://purl.org/dc/elements/1.1/"
   xmlns:cc="http://creativecommons.org/ns#"
   xmlns:rdf="http://www.w3.org/1999/02/22-rdf-syntax-ns#"
   xmlns:svg="http://www.w3.org/2000/svg"
   xmlns="http://www.w3.org/2000/svg"
   xmlns:sodipodi="http://sodipodi.sourceforge.net/DTD/sodipodi-0.dtd"
   xmlns:inkscape="http://www.inkscape.org/namespaces/inkscape"
   width="744.09448819"
   height="1052.3622047"
   id="svg2"
   version="1.1"
   inkscape:version="0.48.4 r9939"
   sodipodi:docname="New document 1">
  <defs
     id="defs4">
    <marker
       viewBox="0 0 10 10"
       refY="5"
       refX="10"
       orient="auto"
       markerWidth="4"
       markerUnits="strokeWidth"
       markerHeight="3"
       id="ArrowStart">
      <path
         id="path3125"
         d="M 10,0 L 0,5 L 10,10 L 10,0 z" />
    </marker>
    <marker
       viewBox="0 0 10 10"
       refY="5"
       refX="0"
       orient="auto"
       markerWidth="4"
       markerUnits="strokeWidth"
       markerHeight="3"
       id="ArrowEnd">
      <path
         id="path3122"
         d="M 0,0 L 10,5 L 0,10 L 0,0 z" />
    </marker>
    <inkscape:perspective
       id="perspective14" />
  </defs>
  <sodipodi:namedview
     id="base"
     pagecolor="#ffffff"
     bordercolor="#666666"
     borderopacity="1.0"
     inkscape:pageopacity="0.0"
     inkscape:pageshadow="2"
     inkscape:zoom="0.35"
     inkscape:cx="661.67649"
     inkscape:cy="132.08022"
     inkscape:document-units="px"
     inkscape:current-layer="layer1"
     showgrid="false"
     inkscape:window-width="1280"
     inkscape:window-height="961"
     inkscape:window-x="-8"
     inkscape:window-y="-8"
     inkscape:window-maximized="1" />
  <metadata
     id="metadata7">
    <rdf:RDF>
      <cc:Work
         rdf:about="">
        <dc:format>image/svg+xml</dc:format>
        <dc:type
           rdf:resource="http://purl.org/dc/dcmitype/StillImage" />
        <dc:title></dc:title>
      </cc:Work>
    </rdf:RDF>
  </metadata>
  <g
     inkscape:label="Layer 1"
     inkscape:groupmode="layer"
     id="layer1">
    <g
       id="g3790"
       style="fill:#200c69;fill-opacity:1">
      <path
         style="fill:#200c69;stroke:#000000;stroke-width:3.40799999000000000;fill-opacity:1"
         id="path3129"
         d="m 162.75968,235.01629 c -41.335,0 -64.571003,21.371 -64.571003,65.036 l 0,450.1221 c 0,40.843 20.891003,62.228 62.192003,62.228 l 452.0242,0 c 41.303,0 62.226,-20.32 62.226,-62.228 l 0,-450.1221 c 0,-42.6 -20.923,-65.036 -63.523,-65.036 0,0 -448.4912,-0.142 -448.3482,0 z"
         inkscape:connector-curvature="0" />
    </g>
    <path
       inkscape:connector-curvature="0"
       d="m 361.49188,315.72829 c 0.059,-34.0005 51.309,-34.0007 51.275,0.958 l 0,142.6911 199.764,120.065 0,52.717 -198.805,-65.431 0,106.647 46.008,35.944 0,41.694 -70.927,-22.045 -70.927,22.045 0,-41.694 45.529,-35.944 0,-106.647 -198.8272,65.431 0,-52.717 196.9102,-120.065 0,-143.6491 z"
       id="path3131"
       style="fill:#ffffff;stroke:none" />
  </g>
</svg>
